<svg width="77" height="77" viewBox="0 0 77 77" fill="none" xmlns="http://www.w3.org/2000/svg">
<path d="M29.3882 34.8747C29.0674 34.8426 28.6824 34.8426 28.3295 34.8747C20.6937 34.618 14.6299 28.3617 14.6299 20.6617C14.6299 12.8013 20.9824 6.41675 28.8749 6.41675C36.7353 6.41675 43.1199 12.8013 43.1199 20.6617C43.0878 28.3617 37.0241 34.618 29.3882 34.8747Z" stroke="#675C54" stroke-width="3" stroke-linecap="round" stroke-linejoin="round"/>
<path d="M52.649 12.8333C58.8731 12.8333 63.8781 17.8703 63.8781 24.0624C63.8781 30.1262 59.0656 35.067 53.0661 35.2916C52.8094 35.2595 52.5206 35.2595 52.2319 35.2916" stroke="#675C54" stroke-width="3" stroke-linecap="round" stroke-linejoin="round"/>
<path d="M13.3466 46.7133C5.58239 51.9108 5.58239 60.3808 13.3466 65.5462C22.1695 71.4495 36.6391 71.4495 45.462 65.5462C53.2262 60.3487 53.2262 51.8787 45.462 46.7133C36.6712 40.842 22.2016 40.842 13.3466 46.7133Z" stroke="#675C54" stroke-width="3" stroke-linecap="round" stroke-linejoin="round"/>
<path d="M58.8408 64.1668C61.1508 63.6856 63.3325 62.7551 65.1292 61.3755C70.1342 57.6217 70.1342 51.4297 65.1292 47.6759C63.3646 46.3284 61.215 45.4301 58.9371 44.9167" stroke="#675C54" stroke-width="3" stroke-linecap="round" stroke-linejoin="round"/>
</svg>
