<svg width="77" height="77" viewBox="0 0 77 77" fill="none" xmlns="http://www.w3.org/2000/svg">
<path d="M58.1992 69.3641C55.3758 70.1983 52.0392 70.5833 48.125 70.5833H28.875C24.9608 70.5833 21.6242 70.1983 18.8008 69.3641C19.5067 61.0225 28.0729 54.4453 38.5 54.4453C48.9271 54.4453 57.4933 61.0225 58.1992 69.3641Z" stroke="#675C54" stroke-width="3" stroke-linecap="round" stroke-linejoin="round"/>
<path d="M48.1251 6.41675H28.8751C12.8335 6.41675 6.41675 12.8334 6.41675 28.8751V48.1251C6.41675 60.2526 10.0743 66.8938 18.801 69.3642C19.5068 61.0226 28.073 54.4454 38.5001 54.4454C48.9272 54.4454 57.4935 61.0226 58.1993 69.3642C66.926 66.8938 70.5835 60.2526 70.5835 48.1251V28.8751C70.5835 12.8334 64.1668 6.41675 48.1251 6.41675ZM38.5001 45.4621C32.1476 45.4621 27.0143 40.2968 27.0143 33.9443C27.0143 27.5918 32.1476 22.4584 38.5001 22.4584C44.8526 22.4584 49.986 27.5918 49.986 33.9443C49.986 40.2968 44.8526 45.4621 38.5001 45.4621Z" stroke="#675C54" stroke-width="3" stroke-linecap="round" stroke-linejoin="round"/>
<path d="M49.9858 33.9441C49.9858 40.2966 44.8525 45.4619 38.5 45.4619C32.1475 45.4619 27.0142 40.2966 27.0142 33.9441C27.0142 27.5916 32.1475 22.4583 38.5 22.4583C44.8525 22.4583 49.9858 27.5916 49.9858 33.9441Z" stroke="#675C54" stroke-width="3" stroke-linecap="round" stroke-linejoin="round"/>
</svg>
