<svg width="133" height="32" viewBox="0 0 133 32" fill="none" xmlns="http://www.w3.org/2000/svg">
<path d="M3.72788 3H1V3.29229C2.58598 3.372 3.7938 3.83459 3.7938 5.075V21.4298C3.7938 22.849 5.03771 24 6.57517 24V6.07385C6.49929 3.52539 4.48293 3 3.72788 3Z" fill="#F1EDE0"/>
<path d="M17.7331 8.83252V21.0724C17.7276 21.6409 17.8733 22.2013 18.156 22.6993C17.5627 23.1232 16.4146 23.5447 14.6731 23.5447C12.5771 23.5447 11.2151 22.5108 11.3146 20.1158V11.4027C11.3146 9.98355 10.0707 8.83252 8.5332 8.83252V20.0216C8.5332 21.0663 8.89767 21.8647 9.48106 22.4649L9.89279 22.8273C11.0011 23.6727 12.6219 23.9964 14.1221 23.9964C17.4545 23.9964 20.512 22.4372 20.512 21.3465V11.4027C20.512 9.98355 19.2681 8.83252 17.7294 8.83252" fill="#F1EDE0"/>
<path d="M38.6515 8.83244C36.3055 8.83244 34.7954 9.35179 33.8512 10.0028C32.7429 9.15733 31.1209 8.83244 29.622 8.83244C27.6392 8.83244 26.251 9.20444 25.2994 9.71051C24.7658 9.06554 24.002 8.6875 23.242 8.6875H20.5166V8.99307C22.11 8.99307 23.3104 9.52209 23.2333 10.7625V21.4298C23.2333 22.8502 24.4772 24.0012 26.0159 24.0012V11.7601C26.0214 11.1919 25.8757 10.632 25.593 10.1344C26.1863 9.71051 27.3344 9.29502 29.0759 9.29502C31.1706 9.29502 32.5339 10.3289 32.4344 12.7228V21.4298C32.4344 22.8489 33.6783 24 35.217 24V12.8109C35.2071 11.7662 34.8464 10.9714 34.263 10.3675C34.773 9.88443 36.1077 9.29502 38.1041 9.29502C40.1989 9.29502 41.4627 10.3289 41.4627 12.7228V21.4298C41.4627 22.8489 42.7066 24 44.244 24V12.8109C44.244 9.81921 41.2674 8.83123 38.6577 8.83123" fill="#F1EDE0"/>
<path d="M53.1644 8.6875C48.2286 8.6875 46.9362 10.9678 46.9362 11.9655C46.9362 12.9631 47.7087 13.5815 48.664 13.5815C49.6193 13.5815 50.4279 12.9776 50.4279 12.0403C50.4279 11.1031 49.6902 10.5451 49.1703 10.3675C49.6231 9.86752 50.4938 9.15975 52.6122 9.15975C54.7305 9.15975 56.105 10.1972 56.105 12.6141V15.3485C52.3348 16.0937 46.1538 16.578 46.1538 20.5046C46.1538 22.0965 47.4064 24 50.4515 24C53.4369 24 55.6137 21.8561 55.6137 21.8561C54.8972 22.3284 52.8012 22.9033 52.0623 22.9033C50.1156 22.9033 49.0857 21.7547 49.0857 19.9007C49.0857 17.6651 50.9727 16.7991 52.8721 16.4162C53.9755 16.1928 55.2355 15.944 56.1063 15.7749V20.1507C56.4608 20.1507 57.0579 19.3656 57.0579 18.9369H57.2917C57.2917 19.7691 56.9036 20.6206 56.1535 21.2885C56.3824 23.1304 57.742 23.9951 58.8901 23.9951V12.7046C58.8105 9.68514 55.8052 8.6875 53.1682 8.6875" fill="#F1EDE0"/>
<path d="M110.28 8.6875C105.345 8.6875 104.052 10.9678 104.052 11.9655C104.052 12.9631 104.825 13.5815 105.781 13.5815C106.738 13.5815 107.545 12.9776 107.545 12.0403C107.545 11.1031 106.806 10.5451 106.285 10.3675C106.738 9.86752 107.61 9.15975 109.727 9.15975C111.844 9.15975 113.217 10.2033 113.217 12.6201V15.3545C109.447 16.0998 103.266 16.5841 103.266 20.5106C103.266 22.1025 104.519 24.006 107.564 24.006C110.549 24.006 112.726 21.8622 112.726 21.8622C112.009 22.3344 109.914 22.9093 109.173 22.9093C107.227 22.9093 106.197 21.7607 106.197 19.9067C106.197 17.6711 108.084 16.8051 109.984 16.4222C111.088 16.1988 112.348 15.95 113.219 15.7809V20.1507C113.573 20.1507 114.17 19.3656 114.17 18.9369H114.404C114.404 19.7691 114.016 20.6206 113.266 21.2885C113.495 23.1304 114.854 23.9951 116.002 23.9951V12.7046C115.923 9.68514 112.916 8.6875 110.28 8.6875Z" fill="#F1EDE0"/>
<path d="M84.7294 8.6875C79.7924 8.6875 78.495 10.9714 78.495 11.9655C78.495 12.9595 79.2675 13.5815 80.2228 13.5815C81.1781 13.5815 81.9866 12.9776 81.9866 12.0403C81.9866 11.1031 81.2552 10.5451 80.734 10.3675C81.1868 9.86752 82.0575 9.15975 84.1759 9.15975C86.2943 9.15975 87.6675 10.2033 87.6675 12.6201V15.3545C83.896 16.0998 77.7163 16.5841 77.7163 20.5106C77.7163 22.1025 78.9702 24.006 82.014 24.006C84.9994 24.006 87.1762 21.8622 87.1762 21.8622C86.4597 22.3344 84.3637 22.9093 83.6236 22.9093C81.6769 22.9093 80.6469 21.7607 80.6469 19.9067C80.6469 17.6711 82.5339 16.8051 84.4334 16.4222C85.5367 16.1988 86.7968 15.95 87.6675 15.7809V20.1507C88.0208 20.1507 88.6179 19.3656 88.6179 18.9369H88.8517C88.8517 19.7691 88.4636 20.6206 87.7135 21.2885C87.9424 23.1304 89.302 23.9951 90.4501 23.9951V12.7046C90.3705 9.68514 87.3653 8.6875 84.7282 8.6875" fill="#F1EDE0"/>
<path d="M73.2594 21.175C72.1025 19.9853 68.5325 16.037 67.8272 15.084C68.5636 14.1999 70.4282 11.9921 71.0937 11.3121C72.6001 9.78058 72.7966 9.28055 75.4673 9.28055V8.9931H72.9894C72.5498 8.99293 72.1156 9.08704 71.7178 9.26868C71.32 9.45033 70.9685 9.71503 70.6882 10.0439C69.4605 11.4848 67.3396 13.9584 66.7761 14.5055C66.2512 15.049 65.5857 15.4572 64.5371 15.6964V6.07385C64.4588 3.52539 62.4486 3 61.6873 3H58.9595V3.29229C60.5454 3.372 61.7533 3.83459 61.7533 5.075V21.4298C61.7533 22.849 62.9972 24 64.5346 24V16.5817C64.7401 16.5283 64.9527 16.5051 65.1653 16.5129C65.48 16.5129 65.6902 16.6844 66.1816 17.2279C66.3172 17.3595 68.6383 20.0215 70.335 21.9685C70.8829 22.5978 71.5646 23.1044 72.3333 23.4536C73.102 23.8028 73.9395 23.9864 74.7881 23.9915C75.4362 23.9915 76.1278 23.9988 76.7995 23.9988V23.7077C75.4312 23.6389 74.9424 22.8091 73.2606 21.1713" fill="#F1EDE0"/>
<path d="M102.296 9.44732C101.689 8.71177 99.349 7.7721 95.7106 10.6032C95.1226 11.0574 94.5993 11.5854 94.1545 12.1733C93.8165 12.0444 93.4565 11.9784 93.0934 11.9789V21.4577C93.0879 22.0263 93.2336 22.5866 93.5163 23.0846C93.0953 23.3639 92.6253 23.5661 92.1294 23.6812L92.3881 24.0037C94.4032 23.4735 95.8711 22.4915 95.8711 21.7343V14.5454C95.8708 14.1996 95.7967 13.8577 95.6534 13.5411C95.5102 13.2245 95.301 12.9401 95.0389 12.706C95.1421 11.9378 95.621 11.2397 96.4072 10.6298C97.9683 9.41471 99.043 9.43887 99.6799 9.54274C99.4062 9.97513 99.2022 10.8097 99.7719 11.5006C100.342 12.1914 101.304 12.1733 102.011 11.6214C102.717 11.0694 102.908 10.172 102.302 9.43887" fill="#F1EDE0"/>
<path d="M126.401 7.87086H123.523L125.564 5.80055C125.715 5.64767 125.835 5.46616 125.916 5.2664C125.998 5.06664 126.04 4.85254 126.04 4.63631C126.04 4.42009 125.998 4.20597 125.916 4.0062C125.835 3.80643 125.715 3.6249 125.564 3.472C125.414 3.31909 125.235 3.19779 125.038 3.11503C124.841 3.03226 124.629 2.98966 124.416 2.98964C124.203 2.98962 123.992 3.03219 123.795 3.11492C123.597 3.19765 123.418 3.31891 123.268 3.4718L121.248 5.51927V2.64639C121.248 2.43019 121.206 2.2161 121.124 2.01635C121.043 1.8166 120.923 1.6351 120.772 1.48222C120.622 1.32934 120.442 1.20806 120.245 1.12532C120.048 1.04259 119.837 1 119.624 1C119.411 1 119.2 1.04259 119.003 1.12532C118.805 1.20806 118.626 1.32934 118.476 1.48222C118.325 1.6351 118.205 1.8166 118.124 2.01635C118.042 2.2161 118 2.43019 118 2.64639V9.51726C118 9.77016 118.058 10.0197 118.168 10.2463C118.279 10.4729 118.44 10.6706 118.638 10.8239L123.268 15.5178C123.418 15.6707 123.597 15.792 123.795 15.8747C123.992 15.9574 124.203 16 124.416 16C124.629 16 124.841 15.9574 125.038 15.8746C125.235 15.7918 125.414 15.6705 125.564 15.5176C125.715 15.3647 125.835 15.1832 125.916 14.9834C125.998 14.7837 126.04 14.5695 126.04 14.3533C126.04 14.1371 125.998 13.923 125.916 13.7232C125.835 13.5235 125.715 13.342 125.564 13.1891L123.567 11.1641H126.401C126.827 11.1573 127.234 10.9809 127.533 10.6728C127.832 10.3647 128 9.94977 128 9.51746C128 9.08515 127.832 8.67018 127.533 8.36211C127.234 8.05405 126.827 7.87761 126.401 7.87086ZM119.638 10.9765C119.35 10.9759 119.069 10.8887 118.83 10.7261C118.591 10.5635 118.405 10.3327 118.296 10.0629C118.186 9.79308 118.158 9.49639 118.215 9.21035C118.272 8.9243 118.411 8.66174 118.615 8.45585L121.063 5.97484V8.05838H123.074L121.658 9.49402L123.12 10.9765H119.638Z" fill="#A3968D"/>
</svg>
